<svg xmlns="http://www.w3.org/2000/svg" xmlns:xlink="http://www.w3.org/1999/xlink" width="500" zoomAndPan="magnify" viewBox="0 0 375 374.999991" height="500" preserveAspectRatio="xMidYMid meet" version="1.0"><defs><clipPath id="eff2bc8a07"><path d="M 32.253906 9 L 342.753906 9 L 342.753906 366 L 32.253906 366 Z M 32.253906 9 " clip-rule="nonzero"/></clipPath><clipPath id="99e4bc3e94"><path d="M 165.632812 308.609375 L 170.035156 308.609375 L 170.035156 313.011719 L 165.632812 313.011719 Z M 165.632812 308.609375 " clip-rule="nonzero"/></clipPath><clipPath id="5f0e17fc42"><path d="M 167.835938 308.609375 C 166.617188 308.609375 165.632812 309.59375 165.632812 310.808594 C 165.632812 312.027344 166.617188 313.011719 167.835938 313.011719 C 169.050781 313.011719 170.035156 312.027344 170.035156 310.808594 C 170.035156 309.59375 169.050781 308.609375 167.835938 308.609375 Z M 167.835938 308.609375 " clip-rule="nonzero"/></clipPath><clipPath id="bc1c3fe0bb"><path d="M 0.632812 0.609375 L 5.035156 0.609375 L 5.035156 5.011719 L 0.632812 5.011719 Z M 0.632812 0.609375 " clip-rule="nonzero"/></clipPath><clipPath id="8de8a32ccd"><path d="M 2.835938 0.609375 C 1.617188 0.609375 0.632812 1.59375 0.632812 2.808594 C 0.632812 4.027344 1.617188 5.011719 2.835938 5.011719 C 4.050781 5.011719 5.035156 4.027344 5.035156 2.808594 C 5.035156 1.59375 4.050781 0.609375 2.835938 0.609375 Z M 2.835938 0.609375 " clip-rule="nonzero"/></clipPath><clipPath id="40e6adb7d4"><rect x="0" width="6" y="0" height="6"/></clipPath></defs><g clip-path="url(#eff2bc8a07)"><path fill="#884ebb" d="M 188.714844 325.28125 C 188.660156 324.839844 188.894531 324.542969 189.160156 324.222656 C 189.96875 323.273438 190.8125 322.34375 191.523438 321.324219 C 192.078125 320.523438 192.53125 320.605469 193.289062 321.046875 C 202.28125 326.300781 211.28125 331.554688 220.3125 336.742188 C 223.589844 338.625 226.984375 340.273438 230.605469 341.445312 C 235.800781 343.128906 240.21875 341.886719 244.144531 338.199219 C 248.027344 334.558594 250.765625 330.191406 253.050781 325.421875 C 264.550781 301.417969 275.351562 277.109375 286.089844 252.761719 C 291.082031 241.4375 295.929688 230.046875 300.5 218.546875 C 308.273438 199.011719 315.550781 179.304688 320.925781 158.949219 C 322.855469 151.628906 323.945312 144.144531 324.980469 136.660156 C 325.945312 129.722656 326.582031 122.75 326.828125 115.753906 C 327.0625 109.035156 327.027344 102.316406 326.5 95.601562 C 325.832031 87.117188 324.507812 78.761719 322.128906 70.582031 C 319.671875 62.148438 316.101562 54.269531 311.097656 46.984375 C 306.601562 40.441406 300.296875 37.058594 292.859375 35.363281 C 284.105469 33.367188 275.507812 34.335938 267.070312 37.109375 C 255.609375 40.875 245.898438 47.511719 237.195312 55.707031 C 226.222656 66.035156 217.609375 78.195312 210.035156 91.128906 C 200.324219 107.707031 192.152344 125.042969 184.691406 142.722656 C 181.269531 150.832031 177.886719 158.953125 175.679688 167.507812 C 175.5 168.203125 175.253906 168.898438 174.949219 169.550781 C 173.964844 171.613281 171.742188 171.875 170.226562 170.167969 C 169.09375 168.898438 168.765625 167.324219 168.511719 165.738281 C 168.378906 164.914062 168.078125 164.210938 167.617188 163.527344 C 159.207031 151.019531 148.691406 140.589844 136.324219 132.011719 C 127.800781 126.097656 118.597656 121.59375 108.546875 118.894531 C 101.738281 117.0625 94.816406 116.144531 87.773438 116.546875 C 78.460938 117.082031 69.8125 119.734375 62.269531 125.367188 C 58.429688 128.234375 55.875 132.25 53.589844 136.382812 C 49.753906 143.335938 47.546875 150.828125 46.695312 158.707031 C 44.324219 180.621094 49.515625 200.847656 60.511719 219.730469 C 67.363281 231.5 76.335938 241.515625 86.394531 250.601562 C 87.246094 251.371094 87.496094 251.875 86.78125 252.929688 C 85.226562 255.226562 83.835938 257.632812 82.414062 260.015625 C 82.03125 260.648438 81.789062 260.894531 81.089844 260.308594 C 66.640625 248.21875 54.046875 234.5625 45.160156 217.789062 C 39.523438 207.15625 35.746094 195.886719 33.867188 183.984375 C 32.789062 177.164062 32.253906 170.3125 32.476562 163.421875 C 32.90625 150.375 35.296875 137.765625 41.394531 126.082031 C 48.753906 111.976562 60.03125 102.292969 74.917969 96.75 C 84.726562 93.097656 94.886719 91.730469 105.273438 92.410156 C 129.84375 94.023438 148.648438 105.324219 161.472656 126.417969 C 166.261719 134.289062 169.351562 142.847656 171.605469 151.738281 C 171.734375 152.238281 171.785156 152.773438 172.15625 153.207031 C 172.5 153.105469 172.472656 152.800781 172.527344 152.558594 C 175.898438 136.128906 179.980469 119.882812 185.007812 103.878906 C 189.351562 90.058594 194.398438 76.519531 201.28125 63.722656 C 208.664062 49.996094 217.910156 37.789062 230.304688 28.167969 C 242.082031 19.027344 255.261719 12.96875 270.011719 10.550781 C 281.175781 8.726562 292.253906 9.164062 303.007812 12.902344 C 317.867188 18.066406 328.351562 28.085938 334.890625 42.320312 C 338.445312 50.066406 340.378906 58.246094 341.460938 66.667969 C 342.738281 76.609375 342.730469 86.585938 342.078125 96.554688 C 340.890625 114.734375 337.644531 132.601562 333.59375 150.339844 C 328.921875 170.808594 323.09375 190.953125 316.722656 210.945312 C 311.828125 226.296875 306.554688 241.515625 300.957031 256.628906 C 295.582031 271.136719 290.003906 285.5625 284.292969 299.9375 C 278.894531 313.53125 273.636719 327.179688 267.75 340.574219 C 265.339844 346.0625 262.808594 351.496094 259.46875 356.507812 C 258.417969 358.085938 257.242188 359.566406 255.914062 360.925781 C 251.269531 365.675781 245.8125 366.292969 239.820312 364.023438 C 238.46875 363.515625 237.125 362.957031 235.851562 362.28125 C 226.835938 357.496094 217.746094 352.855469 209.40625 346.886719 C 201.585938 341.292969 193.582031 335.960938 185.625 330.558594 C 184.714844 329.941406 184.652344 329.550781 185.398438 328.78125 C 186.230469 327.914062 186.9375 326.921875 187.714844 326 C 187.988281 325.671875 188.199219 325.234375 188.742188 325.257812 C 189.570312 326.15625 190.671875 326.671875 191.667969 327.328125 C 204.097656 335.496094 216.414062 343.839844 229.003906 351.769531 C 229.828125 352.289062 230.675781 352.707031 231.667969 352.8125 C 235.003906 353.175781 239.175781 350.585938 240.566406 347.265625 C 240.1875 347.152344 239.863281 347.34375 239.515625 347.429688 C 237.3125 347.996094 235.082031 348.136719 232.820312 347.8125 C 228.5 347.191406 224.546875 345.53125 220.734375 343.5 C 210.410156 338 200.457031 331.851562 190.320312 326.019531 C 189.808594 325.734375 189.375 325.253906 188.714844 325.28125 Z M 283.984375 28.558594 C 283.621094 28.394531 283.527344 28.332031 283.421875 28.304688 C 283.152344 28.226562 282.878906 28.152344 282.609375 28.089844 C 274.710938 26.316406 266.796875 26.382812 258.898438 27.992188 C 243.667969 31.097656 231.105469 38.875 220.636719 50.207031 C 211.589844 60 205.242188 71.472656 200.121094 83.675781 C 194.933594 96.035156 190.964844 108.808594 187.257812 121.671875 C 187.171875 121.964844 186.90625 122.261719 187.238281 122.644531 C 187.449219 122.214844 187.640625 121.824219 187.832031 121.429688 C 189.664062 117.628906 191.457031 113.804688 193.335938 110.027344 C 199.503906 97.632812 206.117188 85.488281 214.058594 74.109375 C 221.914062 62.863281 230.816406 52.585938 241.800781 44.242188 C 251.082031 37.199219 261.234375 31.988281 272.730469 29.648438 C 276.351562 28.917969 280.011719 28.519531 283.984375 28.558594 Z M 335.386719 102.769531 C 335.507812 102.769531 335.632812 102.769531 335.75 102.769531 C 336.195312 99.15625 336.433594 95.519531 336.550781 91.890625 C 336.820312 83.480469 336.796875 75.074219 335.648438 66.710938 C 334.597656 59.027344 332.832031 51.535156 329.550781 44.476562 C 323.945312 32.421875 315.140625 23.683594 302.617188 18.902344 C 293.316406 15.347656 283.667969 14.679688 273.878906 15.835938 C 262.492188 17.179688 251.960938 21.058594 242.167969 26.980469 C 241.945312 27.113281 241.566406 27.144531 241.597656 27.550781 C 241.640625 27.554688 241.683594 27.582031 241.714844 27.566406 C 241.90625 27.5 242.09375 27.4375 242.273438 27.351562 C 253.257812 22.359375 264.742188 20.207031 276.789062 21.316406 C 285.351562 22.101562 293.242188 24.855469 300.535156 29.386719 C 304.042969 31.566406 306.972656 34.46875 310.242188 36.933594 C 318.226562 42.957031 323.921875 50.6875 327.90625 59.773438 C 332.9375 71.253906 334.9375 83.363281 335.375 95.792969 C 335.457031 98.117188 335.386719 100.445312 335.386719 102.769531 Z M 40.839844 144.835938 C 41.023438 144.4375 41.210938 144.046875 41.382812 143.644531 C 42.433594 141.210938 43.558594 138.8125 44.832031 136.484375 C 48.875 129.085938 54.949219 123.496094 61.296875 118.207031 C 71.816406 109.445312 84.226562 105.636719 97.695312 104.957031 C 108.777344 104.390625 119.367188 106.546875 129.4375 111.222656 C 140.183594 116.207031 149.269531 123.414062 157.199219 132.140625 C 157.660156 132.652344 158.125 133.15625 158.589844 133.667969 C 158.675781 133.316406 158.59375 133.097656 158.488281 132.894531 C 151.871094 120.1875 142.34375 110.390625 129.359375 104.195312 C 118.234375 98.882812 106.414062 97.351562 94.210938 98.347656 C 85.078125 99.089844 76.441406 101.554688 68.433594 106.058594 C 53.195312 114.632812 44.675781 128.054688 40.839844 144.835938 Z M 238.625 357.207031 C 240.394531 358.152344 242.082031 358.785156 243.839844 359.238281 C 246.832031 360.007812 249.386719 359.265625 251.578125 357.101562 C 253.277344 355.417969 254.644531 353.480469 255.867188 351.441406 C 259.492188 345.390625 262.292969 338.933594 265.003906 332.445312 C 270.375 319.582031 275.46875 306.601562 280.597656 293.644531 C 285.433594 281.433594 290.121094 269.164062 294.761719 256.878906 C 295.292969 255.464844 295.769531 254.035156 296.277344 252.609375 C 296.003906 252.746094 295.886719 252.941406 295.796875 253.152344 C 290.804688 264.660156 285.6875 276.113281 280.304688 287.445312 C 274.253906 300.191406 268.128906 312.90625 260.917969 325.046875 C 257.449219 330.886719 253.804688 336.609375 250.5625 342.589844 C 247.550781 348.140625 244.273438 353.566406 238.625 357.207031 Z M 96.910156 110.859375 C 121.617188 113.582031 141.210938 126.03125 158.476562 142.992188 C 158.433594 142.75 158.347656 142.578125 158.234375 142.429688 C 150.898438 132.828125 142.242188 124.699219 131.632812 118.804688 C 120.835938 112.796875 109.285156 109.964844 96.910156 110.859375 Z M 96.910156 110.859375 " fill-opacity="1" fill-rule="nonzero"/></g><path fill="#884ebb" d="M 140.164062 267.347656 C 144.980469 267.460938 149.25 268.96875 153.242188 271.25 C 157.417969 273.632812 161.871094 274.9375 166.640625 275.335938 C 169.886719 275.609375 173.136719 275.898438 176.351562 276.457031 C 182.761719 277.574219 188.683594 279.910156 193.84375 283.902344 C 198.859375 287.777344 201.527344 292.777344 200.144531 299.285156 C 198.980469 304.769531 195.839844 308.898438 191.058594 311.8125 C 187.226562 314.152344 182.953125 315.074219 178.617188 315.832031 C 174.769531 316.503906 170.917969 317.152344 167.082031 317.875 C 164.15625 318.429688 161.808594 319.949219 160.042969 322.378906 C 157.835938 325.40625 156.597656 328.914062 155.074219 332.285156 C 152.730469 337.472656 149.867188 342.316406 145.261719 345.835938 C 140.570312 349.421875 135.4375 351.117188 129.710938 348.496094 C 125.625 346.625 123.074219 343.242188 121.390625 339.167969 C 119.574219 334.773438 119.539062 330.3125 121.042969 325.828125 C 121.476562 324.53125 121.898438 323.21875 122.464844 321.976562 C 124.664062 317.175781 124.933594 312.226562 123.921875 307.097656 C 122.949219 302.167969 121.546875 297.273438 121.558594 292.21875 C 121.574219 283.058594 124.84375 275.324219 132.335938 269.707031 C 134.667969 267.964844 137.429688 267.390625 140.164062 267.347656 Z M 140.164062 267.347656 " fill-opacity="1" fill-rule="nonzero"/><path fill="#884ebb" d="M 91.082031 267.222656 C 91.09375 265.566406 91.3125 263.9375 91.773438 262.339844 C 93.609375 255.976562 99.414062 253.390625 105.363281 256.300781 C 108.859375 258.015625 111.496094 260.691406 113.570312 263.929688 C 116.945312 269.199219 118.710938 274.902344 118.023438 281.222656 C 117.859375 282.757812 117.390625 284.207031 116.726562 285.605469 C 114.597656 290.101562 109.996094 291.960938 105.308594 290.25 C 101.988281 289.035156 99.414062 286.859375 97.207031 284.167969 C 93.441406 279.550781 91.046875 272.957031 91.082031 267.222656 Z M 91.082031 267.222656 " fill-opacity="1" fill-rule="nonzero"/><path fill="#884ebb" d="M 132.101562 263.160156 C 127.011719 262.878906 121.878906 260.105469 117.550781 255.71875 C 114.644531 252.773438 112.480469 249.363281 111.867188 245.167969 C 111.011719 239.304688 114.609375 234.804688 120.542969 234.484375 C 126.515625 234.160156 131.511719 236.613281 135.917969 240.402344 C 139.082031 243.121094 141.535156 246.375 142.742188 250.445312 C 142.765625 250.523438 142.789062 250.601562 142.8125 250.679688 C 144.84375 257.753906 140.644531 263.265625 132.101562 263.160156 Z M 132.101562 263.160156 " fill-opacity="1" fill-rule="nonzero"/><path fill="#884ebb" d="M 171.476562 270.917969 C 162.996094 270.851562 153.625 264.210938 151.203125 256.558594 C 149.457031 251.050781 152.355469 246.21875 158.03125 245.238281 C 162.878906 244.402344 167.28125 245.800781 171.421875 248.171875 C 175.046875 250.246094 178.039062 253.011719 180.039062 256.738281 C 184.101562 264.316406 180.070312 270.988281 171.476562 270.917969 Z M 171.476562 270.917969 " fill-opacity="1" fill-rule="nonzero"/><path fill="#884ebb" d="M 114.734375 315.554688 C 114.683594 318.09375 114.324219 320.625 113.027344 322.9375 C 111.601562 325.480469 109.289062 326.507812 106.597656 325.394531 C 97.71875 321.722656 91.957031 315.355469 90.355469 305.691406 C 89.792969 302.300781 90.394531 299.015625 92.511719 296.171875 C 95.382812 292.3125 99.863281 291.460938 103.9375 294.007812 C 106.851562 295.824219 108.878906 298.464844 110.539062 301.402344 C 113.015625 305.777344 114.617188 310.410156 114.734375 315.554688 Z M 114.734375 315.554688 " fill-opacity="1" fill-rule="nonzero"/><g clip-path="url(#99e4bc3e94)"><g clip-path="url(#5f0e17fc42)"><g transform="matrix(1, 0, 0, 1, 165, 308)"><g clip-path="url(#40e6adb7d4)"><g clip-path="url(#bc1c3fe0bb)"><g clip-path="url(#8de8a32ccd)"><path fill="#884ebb" d="M 0.632812 0.609375 L 5.035156 0.609375 L 5.035156 5.011719 L 0.632812 5.011719 Z M 0.632812 0.609375 " fill-opacity="1" fill-rule="nonzero"/></g></g></g></g></g></g></svg>